<svg width="1200" height="760" viewBox="0 0 1200 760" xmlns="http://www.w3.org/2000/svg">
  <rect width="1200" height="760" rx="40" fill="#050816"/>
  <rect x="90" y="90" width="1020" height="580" rx="32" fill="#0b1120" stroke="#1f2937" stroke-width="2"/>
  <rect x="140" y="150" width="920" height="80" rx="20" fill="#111827"/>
  <circle cx="190" cy="190" r="18" fill="#38bdf8"/>
  <rect x="225" y="175" width="180" height="30" rx="15" fill="#334155"/>
  <rect x="850" y="160" width="140" height="44" rx="22" fill="url(#grad)"/>
  <rect x="140" y="270" width="740" height="92" rx="24" fill="#111827" stroke="#334155"/>
  <rect x="180" y="300" width="520" height="24" rx="12" fill="#475569"/>
  <rect x="180" y="338" width="360" height="24" rx="12" fill="#475569"/>
  <rect x="140" y="410" width="610" height="110" rx="28" fill="#0f172a" stroke="#334155"/>
  <circle cx="200" cy="465" r="26" fill="#8b5cf6"/>
  <rect x="245" y="445" width="410" height="24" rx="12" fill="#1e293b"/>
  <rect x="245" y="480" width="300" height="24" rx="12" fill="#1e293b"/>
  <rect x="780" y="430" width="220" height="96" rx="24" fill="url(#grad)"/>
  <rect x="812" y="462" width="140" height="20" rx="10" fill="rgba(255,255,255,0.85)"/>
  <defs>
    <linearGradient id="grad" x1="0%" y1="0%" x2="100%" y2="100%">
      <stop offset="0%" stop-color="#60a5fa"/>
      <stop offset="100%" stop-color="#a78bfa"/>
    </linearGradient>
  </defs>
</svg>